# xmcd
#
# Track frame offsets:
#	150
#	28214
#	52006
#	74070
#	94526
#	124670
#	146982
#	170462
#	192430
#	217726
#	236846
#
# Disc length: 3467 seconds
#
# Revision: 0
# Processed by: cddbd v1.5.2PL0 Copyright (c) Steve Scherf et al.
# Submitted via: dBpowerAMP V4.0
#
DISCID=a90d890b
DTITLE=Mike Wells - Simple Foundations - Disc 1
DYEAR=1900
DGENRE=
TTITLE0=Simple Foundations 01-01
TTITLE1=Simple Foundations 01-02
TTITLE2=Simple Foundations 01-03
TTITLE3=Simple Foundations 01-04
TTITLE4=Simple Foundations 01-05
TTITLE5=Simple Foundations 01-06
TTITLE6=Simple Foundations 01-07
TTITLE7=Simple Foundations 01-08
TTITLE8=Simple Foundations 01-09
TTITLE9=Simple Foundations 01-10
TTITLE10=Simple Foundations 01-11
EXTD=Free download from http://GraceHead.com
EXTT0=
EXTT1=
EXTT2=
EXTT3=
EXTT4=
EXTT5=
EXTT6=
EXTT7=
EXTT8=
EXTT9=
EXTT10=
PLAYORDER=
